<?xml version='1.0' encoding='utf-8'?>
<mxfile host="Electron" agent="Mozilla/5.0 (Windows NT 10.0; Win64; x64) AppleWebKit/537.36 (KHTML, like Gecko) draw.io/26.0.9 Chrome/128.0.6613.186 Electron/32.2.5 Safari/537.36" version="26.0.9">
  <diagram id="cO7jFfkOg7ThRzreBeMR" name="Page-1">
    <mxGraphModel dx="2284" dy="836" grid="1" gridSize="10" guides="1" tooltips="1" connect="1" arrows="1" fold="1" page="1" pageScale="1" pageWidth="850" pageHeight="1100" math="0" shadow="0">
      <root>
        <mxCell id="0" style="" />
        <mxCell id="1" parent="0" style="" />
        <mxCell id="2" style="edgeStyle=none;html=1;exitX=0.5;exitY=1;exitDx=0;exitDy=0;entryX=0.5;entryY=0;entryDx=0;entryDy=0;strokeColor=#FF0000;strokeWidth=4;" parent="1" source="10" target="7" edge="1">
          <mxGeometry relative="1" as="geometry">
            <mxPoint x="350" y="230" as="sourcePoint" />
            <mxPoint x="420" y="130" as="targetPoint" />
          </mxGeometry>
        </mxCell>
        <mxCell id="13" value="no" style="edgeStyle=none;html=1;strokeColor=#FF0000;strokeWidth=4;" parent="1" source="7" target="12" edge="1">
          <mxGeometry relative="1" as="geometry" />
        </mxCell>
        <mxCell id="e20JTyUjlTbS0Y7-oMpP-48" value="yes" style="edgeStyle=orthogonalEdgeStyle;rounded=0;orthogonalLoop=1;jettySize=auto;html=1;strokeColor=#FF0000;strokeWidth=4;" parent="1" source="7" target="21" edge="1">
          <mxGeometry relative="1" as="geometry" />
        </mxCell>
        <mxCell id="7" value="1" style="rhombus;whiteSpace=wrap;html=1;fillColor=#0050ef;fontColor=#ffffff;strokeColor=#FF0000;strokeWidth=4;" parent="1" vertex="1">
          <mxGeometry x="400" y="170" width="185" height="120" as="geometry" />
        </mxCell>
        <mxCell id="10" value="" style="ellipse;whiteSpace=wrap;html=1;aspect=fixed;strokeColor=#FF0000;strokeWidth=4;" parent="1" vertex="1">
          <mxGeometry x="472.5" y="80" width="40" height="40" as="geometry" />
        </mxCell>
        <mxCell id="26" value="" style="edgeStyle=none;html=1;strokeColor=#FF0000;strokeWidth=4;" parent="1" source="11" target="24" edge="1">
          <mxGeometry relative="1" as="geometry" />
        </mxCell>
        <mxCell id="11" value="PB" style="rounded=1;whiteSpace=wrap;html=1;strokeColor=#FF0000;strokeWidth=4;" parent="1" vertex="1">
          <mxGeometry x="-77.5" y="440" width="220" height="60" as="geometry" />
        </mxCell>
        <mxCell id="20" value="no" style="edgeStyle=none;html=1;strokeColor=#FF0000;strokeWidth=4;" parent="1" source="12" target="14" edge="1">
          <mxGeometry relative="1" as="geometry" />
        </mxCell>
        <mxCell id="28" value="yes" style="edgeStyle=none;html=1;entryX=0.5;entryY=0;entryDx=0;entryDy=0;strokeColor=#FF0000;strokeWidth=4;" parent="1" source="12" target="27" edge="1">
          <mxGeometry relative="1" as="geometry" />
        </mxCell>
        <mxCell id="12" value="2" style="rhombus;whiteSpace=wrap;html=1;fillColor=#0050ef;fontColor=#ffffff;strokeColor=#FF0000;strokeWidth=4;" parent="1" vertex="1">
          <mxGeometry x="400" y="350" width="185" height="120" as="geometry" />
        </mxCell>
        <mxCell id="18" value="no" style="edgeStyle=none;html=1;exitX=1;exitY=0.5;exitDx=0;exitDy=0;entryX=0.5;entryY=0;entryDx=0;entryDy=0;strokeColor=#FF0000;strokeWidth=4;" parent="1" source="14" target="16" edge="1">
          <mxGeometry relative="1" as="geometry">
            <Array as="points">
              <mxPoint x="763" y="580" />
            </Array>
          </mxGeometry>
        </mxCell>
        <mxCell id="19" value="yes" style="edgeStyle=none;html=1;strokeColor=#FF0000;strokeWidth=4;" parent="1" source="14" target="15" edge="1">
          <mxGeometry relative="1" as="geometry" />
        </mxCell>
        <mxCell id="14" value="3" style="rhombus;whiteSpace=wrap;html=1;fillColor=#0050ef;fontColor=#ffffff;strokeColor=#FF0000;strokeWidth=4;" parent="1" vertex="1">
          <mxGeometry x="400" y="520" width="185" height="120" as="geometry" />
        </mxCell>
        <mxCell id="17" value="no" style="edgeStyle=none;html=1;strokeColor=#FF0000;strokeWidth=4;" parent="1" source="15" target="16" edge="1">
          <mxGeometry relative="1" as="geometry" />
        </mxCell>
        <mxCell id="31" value="yes" style="edgeStyle=none;html=1;strokeColor=#FF0000;strokeWidth=4;" parent="1" source="15" target="30" edge="1">
          <mxGeometry relative="1" as="geometry" />
        </mxCell>
        <mxCell id="15" value="4" style="rhombus;whiteSpace=wrap;html=1;fillColor=#0050ef;fontColor=#ffffff;strokeColor=#FF0000;strokeWidth=4;" parent="1" vertex="1">
          <mxGeometry x="400" y="700" width="185" height="120" as="geometry" />
        </mxCell>
        <mxCell id="35" value="yes" style="edgeStyle=none;html=1;entryX=1;entryY=0.5;entryDx=0;entryDy=0;strokeColor=#FF0000;strokeWidth=4;" parent="1" source="16" target="30" edge="1">
          <mxGeometry relative="1" as="geometry" />
        </mxCell>
        <mxCell id="36" value="no" style="edgeStyle=none;html=1;entryX=1;entryY=0.5;entryDx=0;entryDy=0;strokeColor=#FF0000;strokeWidth=4;" parent="1" source="16" target="33" edge="1">
          <mxGeometry relative="1" as="geometry">
            <Array as="points">
              <mxPoint x="763" y="1050" />
            </Array>
          </mxGeometry>
        </mxCell>
        <mxCell id="16" value="5" style="rhombus;whiteSpace=wrap;html=1;fillColor=#0050ef;fontColor=#ffffff;strokeColor=#FF0000;strokeWidth=4;" parent="1" vertex="1">
          <mxGeometry x="670" y="700" width="185" height="120" as="geometry" />
        </mxCell>
        <mxCell id="23" value="no" style="edgeStyle=none;html=1;strokeColor=#FF0000;strokeWidth=4;" parent="1" source="21" target="11" edge="1">
          <mxGeometry relative="1" as="geometry" />
        </mxCell>
        <mxCell id="25" value="yes" style="edgeStyle=none;html=1;entryX=0;entryY=0.5;entryDx=0;entryDy=0;strokeColor=#FF0000;strokeWidth=4;" parent="1" source="21" target="24" edge="1">
          <mxGeometry relative="1" as="geometry">
            <mxPoint x="-210" y="430" as="targetPoint" />
            <Array as="points">
              <mxPoint x="-160" y="330" />
              <mxPoint x="-160" y="620" />
            </Array>
          </mxGeometry>
        </mxCell>
        <mxCell id="21" value="6" style="rhombus;whiteSpace=wrap;html=1;fillColor=#0050ef;fontColor=#ffffff;strokeColor=#FF0000;strokeWidth=4;" parent="1" vertex="1">
          <mxGeometry x="-60" y="260" width="185" height="120" as="geometry" />
        </mxCell>
        <mxCell id="32" value="yes" style="edgeStyle=none;html=1;entryX=0;entryY=0.5;entryDx=0;entryDy=0;strokeColor=#FF0000;strokeWidth=4;" parent="1" source="24" target="30" edge="1">
          <mxGeometry relative="1" as="geometry">
            <Array as="points">
              <mxPoint x="260" y="890" />
            </Array>
          </mxGeometry>
        </mxCell>
        <mxCell id="34" value="no" style="edgeStyle=none;html=1;entryX=0;entryY=0.5;entryDx=0;entryDy=0;strokeColor=#FF0000;strokeWidth=4;" parent="1" source="24" target="33" edge="1">
          <mxGeometry relative="1" as="geometry">
            <Array as="points">
              <mxPoint x="33" y="1050" />
            </Array>
          </mxGeometry>
        </mxCell>
        <mxCell id="24" value="7" style="rhombus;whiteSpace=wrap;html=1;fillColor=#0050ef;fontColor=#ffffff;strokeColor=#FF0000;strokeWidth=4;" parent="1" vertex="1">
          <mxGeometry x="-60" y="570" width="185" height="120" as="geometry" />
        </mxCell>
        <mxCell id="29" style="edgeStyle=none;html=1;entryX=0;entryY=0.5;entryDx=0;entryDy=0;strokeColor=#FF0000;strokeWidth=4;" parent="1" source="27" target="15" edge="1">
          <mxGeometry relative="1" as="geometry" />
        </mxCell>
        <mxCell id="27" value="PA" style="rounded=1;whiteSpace=wrap;html=1;strokeColor=#FF0000;strokeWidth=4;" parent="1" vertex="1">
          <mxGeometry x="162.5" y="550" width="220" height="60" as="geometry" />
        </mxCell>
        <mxCell id="39" style="edgeStyle=none;html=1;entryX=0.5;entryY=0;entryDx=0;entryDy=0;strokeColor=#FF0000;strokeWidth=4;" parent="1" source="30" target="33" edge="1">
          <mxGeometry relative="1" as="geometry" />
        </mxCell>
        <mxCell id="30" value="PC" style="rounded=1;whiteSpace=wrap;html=1;strokeColor=#FF0000;strokeWidth=4;" parent="1" vertex="1">
          <mxGeometry x="382.5" y="880" width="220" height="60" as="geometry" />
        </mxCell>
        <mxCell id="33" value="EXIT" style="rounded=1;whiteSpace=wrap;html=1;strokeColor=#FF0000;strokeWidth=4;" parent="1" vertex="1">
          <mxGeometry x="382.5" y="1020" width="220" height="60" as="geometry" />
        </mxCell>
      </root>
    </mxGraphModel>
  </diagram>
</mxfile>